<svg width="184" height="31" viewBox="0 0 184 31" fill="none" xmlns="http://www.w3.org/2000/svg">
<path fill-rule="evenodd" clip-rule="evenodd" d="M111.218 8.96079C110.887 9.09999 110.534 9.16959 110.16 9.16959C109.795 9.16959 109.454 9.09999 109.138 8.96079C108.821 8.82159 108.54 8.63439 108.295 8.39919C108.05 8.16399 107.858 7.89039 107.719 7.57839C107.58 7.26639 107.51 6.93279 107.51 6.57759C107.51 6.21279 107.58 5.87199 107.719 5.55519C107.858 5.23839 108.05 4.95999 108.295 4.71999C108.54 4.47999 108.821 4.29279 109.138 4.15839C109.454 4.02399 109.795 3.95679 110.16 3.95679C110.534 3.95679 110.887 4.02399 111.218 4.15839C111.55 4.29279 111.84 4.47999 112.09 4.71999C112.339 4.95999 112.536 5.23839 112.68 5.55519C112.824 5.87199 112.896 6.21279 112.896 6.57759C112.896 6.93279 112.824 7.26639 112.68 7.57839C112.536 7.89039 112.339 8.16399 112.09 8.39919C111.84 8.63439 111.55 8.82159 111.218 8.96079ZM57.5712 25.6V21.712H49.7952V4.61919H44.928V25.6H57.5712ZM65.952 25.8304C67.0848 25.8304 68.1168 25.6504 69.048 25.2904C69.9792 24.9304 70.7784 24.4168 71.4456 23.7496C72.1128 23.0824 72.6312 22.2712 73.0008 21.316C73.3704 20.3608 73.5552 19.288 73.5552 18.0976C73.5552 16.9168 73.3704 15.8536 73.0008 14.908C72.6312 13.9624 72.1128 13.1584 71.4456 12.496C70.7784 11.8336 69.9792 11.3248 69.048 10.9696C68.1168 10.6144 67.0848 10.4368 65.952 10.4368C64.8096 10.4368 63.7704 10.6144 62.8344 10.9696C61.8984 11.3248 61.092 11.8336 60.4152 12.496C59.7384 13.1584 59.2152 13.9624 58.8456 14.908C58.476 15.8536 58.2912 16.9168 58.2912 18.0976C58.2912 19.288 58.476 20.3608 58.8456 21.316C59.2152 22.2712 59.7384 23.0824 60.4152 23.7496C61.092 24.4168 61.8984 24.9304 62.8344 25.2904C63.7704 25.6504 64.8096 25.8304 65.952 25.8304ZM63.6336 21.4312C64.1232 22.156 64.896 22.5184 65.952 22.5184C66.9792 22.5184 67.7352 22.156 68.22 21.4312C68.7048 20.7064 68.9472 19.6048 68.9472 18.1264C68.9472 16.648 68.7048 15.5488 68.22 14.8288C67.7352 14.1088 66.9792 13.7488 65.952 13.7488C64.896 13.7488 64.1232 14.1088 63.6336 14.8288C63.144 15.5488 62.8992 16.648 62.8992 18.1264C62.8992 19.6048 63.144 20.7064 63.6336 21.4312ZM81.2736 30.7408C82.464 30.7408 83.52 30.5896 84.4416 30.2872C85.3632 29.9848 86.1408 29.584 86.7744 29.0848C87.408 28.5856 87.888 28.0144 88.2144 27.3712C88.5408 26.728 88.704 26.0704 88.704 25.3984C88.704 24.6784 88.572 24.0856 88.308 23.62C88.044 23.1544 87.696 22.7824 87.264 22.504C86.832 22.2256 86.3376 22.024 85.7808 21.8992C85.224 21.7744 84.6576 21.6856 84.0816 21.6328C83.5056 21.58 82.9392 21.5464 82.3824 21.532C81.8256 21.5176 81.3312 21.4888 80.8992 21.4456C80.4672 21.4024 80.1192 21.3256 79.8552 21.2152C79.5912 21.1048 79.4592 20.9248 79.4592 20.6752C79.4592 20.4256 79.6224 20.2048 79.9488 20.0128C80.3616 20.0704 80.8032 20.0992 81.2736 20.0992C82.1184 20.0992 82.9104 19.9864 83.6496 19.7608C84.3888 19.5352 85.0296 19.2136 85.572 18.796C86.1144 18.3784 86.5416 17.872 86.8536 17.2768C87.1656 16.6816 87.3216 16.0096 87.3216 15.2608C87.3216 14.8 87.2544 14.3536 87.12 13.9216L88.2144 13.6768C88.5504 13.6 88.788 13.4896 88.9272 13.3456C89.0664 13.2016 89.136 13.0048 89.136 12.7552V11.128H84.6288C84.1488 10.8976 83.628 10.72 83.0664 10.5952C82.5048 10.4704 81.9072 10.408 81.2736 10.408C80.4 10.408 79.5888 10.5208 78.84 10.7464C78.0912 10.972 77.4408 11.2936 76.8888 11.7112C76.3368 12.1288 75.9024 12.6376 75.5856 13.2376C75.2688 13.8376 75.1104 14.512 75.1104 15.2608C75.1104 16.1632 75.3336 16.9552 75.78 17.6368C76.2264 18.3184 76.8384 18.8656 77.616 19.2784C77.2704 19.4416 76.9728 19.6288 76.7232 19.84C76.4736 20.0512 76.2672 20.272 76.104 20.5024C75.9408 20.7328 75.8208 20.9704 75.744 21.2152C75.6672 21.46 75.6288 21.6928 75.6288 21.9136C75.6288 22.4416 75.7296 22.8784 75.9312 23.224C76.1328 23.5696 76.4016 23.8528 76.7376 24.0736C76.0368 24.3328 75.4848 24.6904 75.0816 25.1464C74.6784 25.6024 74.4768 26.1616 74.4768 26.824C74.4768 27.3328 74.6112 27.8224 74.88 28.2928C75.1488 28.7632 75.564 29.1784 76.1256 29.5384C76.6872 29.8984 77.3928 30.1888 78.2424 30.4096C79.092 30.6304 80.1024 30.7408 81.2736 30.7408ZM80.3304 17.1976C80.5944 17.2984 80.9088 17.3488 81.2736 17.3488C82.0128 17.3488 82.548 17.164 82.8792 16.7944C83.2104 16.4248 83.376 15.9472 83.376 15.3616C83.376 14.7568 83.2104 14.2816 82.8792 13.936C82.548 13.5904 82.0128 13.4176 81.2736 13.4176C80.5344 13.4176 79.9992 13.5904 79.668 13.936C79.3368 14.2816 79.1712 14.7568 79.1712 15.3616C79.1712 15.6496 79.212 15.9136 79.2936 16.1536C79.3752 16.3936 79.5024 16.6024 79.6752 16.78C79.848 16.9576 80.0664 17.0968 80.3304 17.1976ZM81.36 27.6736C80.7648 27.6736 80.2728 27.6376 79.884 27.5656C79.4952 27.4936 79.1856 27.3952 78.9552 27.2704C78.7248 27.1456 78.564 26.9968 78.4728 26.824C78.3816 26.6512 78.336 26.4592 78.336 26.248C78.336 25.9504 78.4248 25.684 78.6024 25.4488C78.78 25.2136 79.008 25 79.2864 24.808C79.6992 24.856 80.1168 24.8872 80.5392 24.9016C80.9616 24.916 81.3696 24.9328 81.7632 24.952C82.1568 24.9712 82.524 25 82.8648 25.0384C83.2056 25.0768 83.5032 25.1392 83.7576 25.2256C84.012 25.312 84.2136 25.4272 84.3624 25.5712C84.5112 25.7152 84.5856 25.9072 84.5856 26.1472C84.5856 26.368 84.5376 26.572 84.4416 26.7592C84.3456 26.9464 84.1752 27.1072 83.9304 27.2416C83.6856 27.376 83.3568 27.4816 82.944 27.5584C82.5312 27.6352 82.0032 27.6736 81.36 27.6736ZM100.814 25.2904C99.8832 25.6504 98.8512 25.8304 97.7184 25.8304C96.576 25.8304 95.5368 25.6504 94.6008 25.2904C93.6648 24.9304 92.8584 24.4168 92.1816 23.7496C91.5048 23.0824 90.9816 22.2712 90.612 21.316C90.2424 20.3608 90.0576 19.288 90.0576 18.0976C90.0576 16.9168 90.2424 15.8536 90.612 14.908C90.9816 13.9624 91.5048 13.1584 92.1816 12.496C92.8584 11.8336 93.6648 11.3248 94.6008 10.9696C95.5368 10.6144 96.576 10.4368 97.7184 10.4368C98.8512 10.4368 99.8832 10.6144 100.814 10.9696C101.746 11.3248 102.545 11.8336 103.212 12.496C103.879 13.1584 104.398 13.9624 104.767 14.908C105.137 15.8536 105.322 16.9168 105.322 18.0976C105.322 19.288 105.137 20.3608 104.767 21.316C104.398 22.2712 103.879 23.0824 103.212 23.7496C102.545 24.4168 101.746 24.9304 100.814 25.2904ZM97.7184 22.5184C96.6624 22.5184 95.8896 22.156 95.4 21.4312C94.9104 20.7064 94.6656 19.6048 94.6656 18.1264C94.6656 16.648 94.9104 15.5488 95.4 14.8288C95.8896 14.1088 96.6624 13.7488 97.7184 13.7488C98.7456 13.7488 99.5016 14.1088 99.9864 14.8288C100.471 15.5488 100.714 16.648 100.714 18.1264C100.714 19.6048 100.471 20.7064 99.9864 21.4312C99.5016 22.156 98.7456 22.5184 97.7184 22.5184ZM112.378 25.6V10.6672H107.914V25.6H112.378ZM120.442 24.6064V30.3376H115.978V10.6672H118.742C119.021 10.6672 119.254 10.7296 119.441 10.8544C119.628 10.9792 119.76 11.1664 119.837 11.416L120.168 12.5104C120.456 12.1936 120.766 11.9056 121.097 11.6464C121.428 11.3872 121.783 11.164 122.162 10.9768C122.542 10.7896 122.95 10.6432 123.386 10.5376C123.823 10.432 124.301 10.3792 124.819 10.3792C125.597 10.3792 126.317 10.552 126.979 10.8976C127.642 11.2432 128.213 11.7424 128.693 12.3952C129.173 13.048 129.55 13.8472 129.823 14.7928C130.097 15.7384 130.234 16.8112 130.234 18.0112C130.234 19.1344 130.078 20.1712 129.766 21.1216C129.454 22.072 129.017 22.8976 128.455 23.5984C127.894 24.2992 127.222 24.8464 126.439 25.24C125.657 25.6336 124.79 25.8304 123.84 25.8304C123.062 25.8304 122.41 25.72 121.882 25.4992C121.354 25.2784 120.874 24.9808 120.442 24.6064ZM122.774 22.5472C122.342 22.5472 121.93 22.4728 121.536 22.324C121.142 22.1752 120.778 21.9136 120.442 21.5392V15.2032C120.634 14.9728 120.826 14.7688 121.018 14.5912C121.21 14.4136 121.418 14.2672 121.644 14.152C121.87 14.0368 122.114 13.948 122.378 13.8856C122.642 13.8232 122.938 13.792 123.264 13.792C123.619 13.792 123.941 13.864 124.229 14.008C124.517 14.152 124.764 14.3896 124.97 14.7208C125.177 15.052 125.338 15.4864 125.453 16.024C125.568 16.5616 125.626 17.224 125.626 18.0112C125.626 18.8368 125.554 19.5376 125.41 20.1136C125.266 20.6896 125.066 21.1576 124.812 21.5176C124.558 21.8776 124.258 22.1392 123.912 22.3024C123.566 22.4656 123.187 22.5472 122.774 22.5472ZM139.27 25.456C138.487 25.7056 137.587 25.8304 136.57 25.8304C136.061 25.8304 135.552 25.7824 135.043 25.6864C134.534 25.5904 134.042 25.4608 133.567 25.2976C133.092 25.1344 132.653 24.94 132.25 24.7144C131.846 24.4888 131.501 24.2464 131.213 23.9872L132.25 22.3456C132.374 22.1536 132.523 22.0024 132.696 21.892C132.869 21.7816 133.094 21.7264 133.373 21.7264C133.632 21.7264 133.865 21.784 134.071 21.8992C134.278 22.0144 134.501 22.1392 134.741 22.2736C134.981 22.408 135.262 22.5328 135.583 22.648C135.905 22.7632 136.31 22.8208 136.8 22.8208C137.146 22.8208 137.438 22.7848 137.678 22.7128C137.918 22.6408 138.11 22.5424 138.254 22.4176C138.398 22.2928 138.504 22.1536 138.571 22C138.638 21.8464 138.672 21.688 138.672 21.5248C138.672 21.2272 138.571 20.9824 138.37 20.7904C138.168 20.5984 137.904 20.4328 137.578 20.2936C137.251 20.1544 136.879 20.0248 136.462 19.9048C136.044 19.7848 135.619 19.648 135.187 19.4944C134.755 19.3408 134.33 19.156 133.913 18.94C133.495 18.724 133.123 18.4504 132.797 18.1192C132.47 17.788 132.206 17.3824 132.005 16.9024C131.803 16.4224 131.702 15.8416 131.702 15.16C131.702 14.5264 131.825 13.924 132.07 13.3528C132.314 12.7816 132.682 12.28 133.171 11.848C133.661 11.416 134.275 11.0728 135.014 10.8184C135.754 10.564 136.618 10.4368 137.606 10.4368C138.144 10.4368 138.665 10.4848 139.169 10.5808C139.673 10.6768 140.146 10.8112 140.587 10.984C141.029 11.1568 141.432 11.3608 141.797 11.596C142.162 11.8312 142.483 12.088 142.762 12.3664L141.754 13.936C141.638 14.1184 141.516 14.248 141.386 14.3248C141.257 14.4016 141.091 14.44 140.89 14.44C140.678 14.44 140.467 14.3944 140.256 14.3032L139.572 14.008C139.327 13.9024 139.051 13.804 138.744 13.7128C138.437 13.6216 138.086 13.576 137.693 13.576C137.126 13.576 136.692 13.684 136.39 13.9C136.087 14.116 135.936 14.416 135.936 14.8C135.936 15.0784 136.034 15.3088 136.231 15.4912C136.428 15.6736 136.69 15.8344 137.016 15.9736C137.342 16.1128 137.712 16.2448 138.125 16.3696C138.538 16.4944 138.96 16.6336 139.392 16.7872C139.824 16.9408 140.246 17.1208 140.659 17.3272C141.072 17.5336 141.442 17.788 141.768 18.0904C142.094 18.3928 142.356 18.76 142.553 19.192C142.75 19.624 142.848 20.1424 142.848 20.7472C142.848 21.4864 142.714 22.168 142.445 22.792C142.176 23.416 141.775 23.9536 141.242 24.4048C140.71 24.856 140.052 25.2064 139.27 25.456ZM150.077 25.8304C150.557 25.8304 150.998 25.7848 151.402 25.6936C151.805 25.6024 152.182 25.4776 152.532 25.3192C152.882 25.1608 153.211 24.9688 153.518 24.7432C153.826 24.5176 154.123 24.2656 154.411 23.9872L154.685 24.8512C154.858 25.3504 155.222 25.6 155.779 25.6H158.544V10.6672H154.08V21.3088C153.677 21.6736 153.262 21.9568 152.834 22.1584C152.407 22.36 151.949 22.4608 151.459 22.4608C150.806 22.4608 150.312 22.2592 149.976 21.856C149.64 21.4528 149.472 20.8816 149.472 20.1424V10.6672H145.008V20.1424C145.008 20.968 145.118 21.7264 145.339 22.4176C145.56 23.1088 145.886 23.7088 146.318 24.2176C146.75 24.7264 147.281 25.1224 147.91 25.4056C148.538 25.6888 149.261 25.8304 150.077 25.8304ZM166.464 14.8V25.6H162V10.6672H164.765C165.043 10.6672 165.276 10.7296 165.463 10.8544C165.65 10.9792 165.782 11.1664 165.859 11.416L166.104 12.2224C166.354 11.9632 166.613 11.7256 166.882 11.5096C167.15 11.2936 167.441 11.1064 167.753 10.948C168.065 10.7896 168.401 10.6648 168.761 10.5736C169.121 10.4824 169.517 10.4368 169.949 10.4368C170.851 10.4368 171.598 10.6696 172.188 11.1352C172.778 11.6008 173.227 12.2224 173.534 13C173.784 12.5392 174.089 12.1456 174.449 11.8192C174.809 11.4928 175.198 11.2288 175.615 11.0272C176.033 10.8256 176.474 10.6768 176.94 10.5808C177.406 10.4848 177.869 10.4368 178.33 10.4368C179.184 10.4368 179.942 10.564 180.605 10.8184C181.267 11.0728 181.822 11.4424 182.268 11.9272C182.714 12.412 183.053 13.0072 183.283 13.7128C183.514 14.4184 183.629 15.2176 183.629 16.1104V25.6H179.165V16.1104C179.165 14.5648 178.502 13.792 177.178 13.792C176.573 13.792 176.071 13.9912 175.673 14.3896C175.274 14.788 175.075 15.3616 175.075 16.1104V25.6H170.611V16.1104C170.611 15.256 170.443 14.656 170.107 14.3104C169.771 13.9648 169.277 13.792 168.624 13.792C168.221 13.792 167.839 13.8832 167.479 14.0656C167.119 14.248 166.781 14.4928 166.464 14.8Z" fill="#D8D8D8"/>
<path fill-rule="evenodd" clip-rule="evenodd" d="M15.2 22.8L6.26566 27.4971L7.97197 17.5485L0.743941 10.5029L10.7328 9.05147L15.2 0L19.6672 9.05147L29.6561 10.5029L22.428 17.5485L24.1343 27.4971L15.2 22.8Z" fill="white"/>
</svg>
